<svg data-name="Layer 2" xmlns="http://www.w3.org/2000/svg" viewBox="0 0 150.79 177.2"><path d="M149.63 146.61c-1.21-1.65-3.64-2.49-5.99-3.78-3.53-1.94-4.81-5.02-4.94-9.53-.09-3.17-1.34-6.07-3.73-8.7a1.03 1.03 0 0 1-.25-.95c2.67-11.86 2.14-21.36-4.18-31.98a395.318 395.318 0 0 0-18.45-28.13c-4.13-5.76-6.19-10.34-6.5-16.69-.5-10.11-.89-16.12-1.16-18.03-1.82-12.76-6.97-24.6-20.38-28C77.26-.9 70 .21 63.55 3.09 45.6 11.08 51.94 34.93 52.13 48.85c.1 7.3.25 11.08-3.53 16.01-5.56 7.25-11.29 13.99-14.53 21.97-1.03 2.55-3.02 7.94-5.97 16.17-2.45 6.85-5.98 10.23-3.89 17.59.11.39-.08.79-.45.95-1.17.51-2.17 1.6-2.99 3.27-1.91 3.9-4.82 6.38-8.74 7.45-4.65 1.27-12.7 2.11-10.6 9.3 1.23 4.2 1.5 7.51.82 9.92-.59 2.07-1.23 4.19-1.94 6.37-1.92 5.92 5.42 8.01 9.87 8.71 1.85.29 5.13.85 9.84 1.67 5.99 1.05 14.23 4.62 19.85 6.36 6.71 2.09 13.35 2.52 17.25-4.05.19-.33.51-.57.89-.65 13.41-3.03 26.61-3.17 39.59-.42.33.07.6.27.77.55 2.49 4.18 5.14 6.89 10.23 7.16 4.68.25 7.97-1.21 11.78-4.64 7.52-6.75 20.29-12.45 25.99-16.14 3.44-2.23 6-6.04 3.26-9.79ZM75.74 27.31c4.04-6.54 11.91-4.97 14.42 1.76 1.63 4.36.85 11.54-4.1 13.69a.93.93 0 0 1-1.09-1.45c2.32-2.77 2.58-5.66.77-8.69-1.1-1.85-3.72-2.72-5.34-1.33-2.37 2.01-2.97 4.76-1.82 8.27 0 .03 0 .07-.03.08-.01.01-.03.01-.05 0l-3.35-1.3a.612.612 0 0 1-.33-.34c-1.35-3.95-1.04-7.52.92-10.69Zm-4.38 13.92c4.85 1.65 8.87 3.18 12.06 4.58 1.34.59 2.3 1.32 2.88 2.21.47.73.27 1.7-.46 2.17 0 0-.03.02-.04.03-5.7 3.43-10.44 6.14-14.22 8.11-1.76.91-3.44.85-5.34-.2-3.68-2.05-6.4-4.4-8.17-7.07-.4-.6-.28-1.4.26-1.86 2.45-2.09 5.25-4.31 8.41-6.68 1.14-.85 2.35-1.32 3.63-1.41.34-.03.67.02.99.12ZM55.39 28.47c1.75-3.45 5.82-5.13 8.75-2.17 2.71 2.74 3.68 6.31 2.92 10.72-.03.19-.14.35-.3.46l-3.19 2.16c-.06.04-.14.03-.18-.03-.02-.03-.03-.07-.02-.11.59-2.14.41-4.15-.54-6.03-1.26-2.49-4.75-3.87-5.81-.48-1.35 4.3-.17 7.32 3.55 9.05.09.04.13.15.09.24-.01.02-.03.04-.05.06l-1.72 1.51c-.17.14-.41.16-.59.05-5.09-3.13-5.24-10.84-2.91-15.43Zm-7.28 141.98c-.28.19-.59.31-.93.36-1.47.22-2.96.12-4.46-.31-6.03-1.7-11.38-3.6-16.07-5.7-1.18-.53-2.39-.91-3.64-1.14-8.3-1.49-13.27-2.41-14.9-2.76-4.35-.95-1.62-6.72-.54-10.62.12-.43.2-.87.24-1.32.11-1.49-.15-4.01-.79-7.56-.57-3.14 3.01-3.85 5.47-4.4 4.39-.96 7.61-1.35 9.49-4.76 1-1.83 1.99-3.6 2.98-5.33 2.69-4.71 8.81 3 10.26 5.09 3.01 4.35 7.63 13.15 12.29 19.17 5.43 7.03 9.7 13.15.6 19.28Zm53.7-42.96c-.37 4.28-.55 9.37-.54 15.28 0 .38-.13.75-.36 1.05-4.08 5.12-8.94 8.91-14.57 11.37-6.87 3-18.27 3.47-25.76 2.76-.54-.05-1.04-.31-1.4-.72l-6.59-7.52a.396.396 0 0 1 .03-.56.36.36 0 0 1 .1-.07c.73-.36 1.43-.42 2.2-.97 1.99-1.44 2.66-3.48 2.03-6.11-.85-3.56-8.63-8.81-15.87-14.74-1.69-1.39-3.05-2.97-4.06-4.76-3.04-5.36-1.9-13.8-.1-19.59 1.4-4.51 4.14-8.2 5.67-12.56.99-2.8 2.54-7.07 4.67-12.81.55-1.49 1.48-3.14 2.81-4.96 3.62-4.96 5.84-10.65 5.67-16.79 0-.18.14-.32.31-.33.09 0 .17.04.23.1 3.17 3.26 8.7 8.88 13.64 7.31 1.31-.41 2.47-.9 3.48-1.46 7.55-4.23 11.9-6.62 13.07-7.18 1.05-.5 1.87-.82 2.47-.95.76-.16 1.52.21 1.88.89 4.44 8.66 8.56 17.74 12.37 27.25 3.87 9.65 6.14 16.42 6.83 20.3 1.24 6.96.99 14.06-.74 21.29-.04.17-.21.29-.39.26-3.99-.7-6.66-.47-7.08 4.22Zm41.37 24.75c-1.98 1.17-5.1 2.87-9.35 5.1-5.53 2.9-8.97 5.05-10.33 6.44-3.02 3.1-8.67 8.23-13.29 7.43-4.27-.73-5.97-6.62-5.56-10.39.58-5.33 3.5-13.94 2.79-21.97-.18-2.03-.33-4.83-.45-8.38-.03-.91.61-1.7 1.5-1.85l.91-.17a.782.782 0 0 1 .91.91c-.11.68-.03 1.93.26 3.75.84 5.35 4.74 7.04 9.87 6.25 5.22-.8 8.92-3.39 11.1-7.76.26-.53.9-.74 1.43-.48.32.16.54.47.59.82.33 2.43.65 4.6.96 6.53.21 1.33.8 2.74 1.76 4.25 1.61 2.55 5.43 3.64 7.5 5.42 1.89 1.63 1.45 2.88-.6 4.1Z" style="fill:#fff;stroke-width:0" data-name="Layer 1"/></svg>